<?xml version="1.0" encoding="UTF-8"?>
<svg width="62px" height="58px" viewBox="0 0 62 58" version="1.1" xmlns="http://www.w3.org/2000/svg" xmlns:xlink="http://www.w3.org/1999/xlink">
    <!-- Generator: Sketch 49.3 (51167) - http://www.bohemiancoding.com/sketch -->
    <title>Page 1</title>
    <desc>Created with Sketch.</desc>
    <defs>
        <polygon id="path-1" points="0 57.3721 61.88 57.3721 61.88 0.0001 0 0.0001"></polygon>
    </defs>
    <g id="Page-1" stroke="none" stroke-width="1" fill="none" fill-rule="evenodd">
        <g>
            <path d="M3.7902,1.9521 C2.7762,1.9521 1.9522,2.7761 1.9522,3.7901 L1.9522,53.5821 C1.9522,54.5961 2.7762,55.4201 3.7902,55.4201 L58.0892,55.4201 C59.1032,55.4201 59.9282,54.5961 59.9282,53.5821 L59.9282,3.7901 C59.9282,2.7761 59.1032,1.9521 58.0892,1.9521 L3.7902,1.9521 Z M58.0892,57.3721 L3.7902,57.3721 C1.7002,57.3721 0.0002,55.6721 0.0002,53.5821 L0.0002,3.7901 C0.0002,1.7001 1.7002,0.0001 3.7902,0.0001 L58.0892,0.0001 C60.1792,0.0001 61.8792,1.7001 61.8792,3.7901 L61.8792,53.5821 C61.8792,55.6721 60.1792,57.3721 58.0892,57.3721 Z" id="Fill-1" fill="#000202"></path>
            <path d="M60.9035,11.1006 L0.9755,11.1006 C0.4365,11.1006 0.0005,10.6636 0.0005,10.1236 C0.0005,9.5846 0.4365,9.1486 0.9755,9.1486 L60.9035,9.1486 C61.4425,9.1486 61.8795,9.5846 61.8795,10.1236 C61.8795,10.6636 61.4425,11.1006 60.9035,11.1006" id="Fill-3" fill="#000202"></path>
            <path d="M7.3141,7.165 C6.4571,7.165 5.7601,6.468 5.7601,5.61 C5.7601,4.754 6.4571,4.057 7.3141,4.057 C8.1711,4.057 8.8681,4.754 8.8681,5.61 C8.8681,6.468 8.1711,7.165 7.3141,7.165" id="Fill-5" fill="#000202"></path>
            <path d="M12.2868,7.165 C11.4298,7.165 10.7328,6.468 10.7328,5.61 C10.7328,4.754 11.4298,4.057 12.2868,4.057 C13.1438,4.057 13.8408,4.754 13.8408,5.61 C13.8408,6.468 13.1438,7.165 12.2868,7.165" id="Fill-7" fill="#000202"></path>
            <path d="M17.2595,7.165 C16.4025,7.165 15.7055,6.468 15.7055,5.61 C15.7055,4.754 16.4025,4.057 17.2595,4.057 C18.1165,4.057 18.8135,4.754 18.8135,5.61 C18.8135,6.468 18.1165,7.165 17.2595,7.165" id="Fill-9" fill="#000202"></path>
            <path d="M52.6808,20.7256 L6.7038,20.7256 C5.6558,20.7256 4.8058,19.8756 4.8058,18.8276 C4.8058,17.7796 5.6558,16.9296 6.7038,16.9296 L52.6808,16.9296 C53.7288,16.9296 54.5788,17.7796 54.5788,18.8276 C54.5788,19.8756 53.7288,20.7256 52.6808,20.7256" id="Fill-11" fill="#000202"></path>
            <path d="M17.2595,29.5381 L6.7035,29.5381 C5.6555,29.5381 4.8055,28.6881 4.8055,27.6411 C4.8055,26.5921 5.6555,25.7421 6.7035,25.7421 L17.2595,25.7421 C18.3075,25.7421 19.1575,26.5921 19.1575,27.6411 C19.1575,28.6881 18.3075,29.5381 17.2595,29.5381" id="Fill-13" fill="#000202"></path>
            <path d="M43.527,38.3506 L6.704,38.3506 C5.655,38.3506 4.806,37.5006 4.806,36.4536 C4.806,35.4046 5.655,34.5546 6.704,34.5546 L43.527,34.5546 C44.575,34.5546 45.425,35.4046 45.425,36.4536 C45.425,37.5006 44.575,38.3506 43.527,38.3506" id="Fill-15" fill="#000202"></path>
            <path d="M33.527,47.164 L6.704,47.164 C5.655,47.164 4.806,46.313 4.806,45.266 C4.806,44.217 5.655,43.367 6.704,43.367 L33.527,43.367 C34.575,43.367 35.425,44.217 35.425,45.266 C35.425,46.313 34.575,47.164 33.527,47.164" id="Fill-17" fill="#000202"></path>
            <mask id="mask-2" fill="white">
                <use xlink:href="#path-1"></use>
            </mask>
            <g id="Clip-20"></g>
            <polygon id="Fill-19" fill="#000202" mask="url(#mask-2)" points="16.738 29.5381 19.421 29.5381 19.421 25.7421 16.738 25.7421"></polygon>
        </g>
    </g>
</svg>