<?xml version="1.0" encoding="UTF-8"?>
<svg width="65px" height="56px" viewBox="0 0 65 56" version="1.1" xmlns="http://www.w3.org/2000/svg" xmlns:xlink="http://www.w3.org/1999/xlink">
    <!-- Generator: Sketch 49.3 (51167) - http://www.bohemiancoding.com/sketch -->
    <title>Page 1</title>
    <desc>Created with Sketch.</desc>
    <defs>
        <polygon id="path-1" points="0 -0.0002 64.5519 -0.0002 64.5519 55.7415 0 55.7415"></polygon>
    </defs>
    <g id="Page-1" stroke="none" stroke-width="1" fill="none" fill-rule="evenodd">
        <g>
            <mask id="mask-2" fill="white">
                <use xlink:href="#path-1"></use>
            </mask>
            <g id="Clip-2"></g>
            <path d="M0.8669,55.7418 C0.3909,55.7418 -0.0001,55.3538 -0.0001,54.8788 C-0.0001,54.3988 0.3909,54.0148 0.8669,54.0148 L63.6849,54.0148 C64.1629,54.0148 64.5519,54.3988 64.5519,54.8788 C64.5519,55.3538 64.1629,55.7418 63.6849,55.7418 L0.8669,55.7418 Z M34.3849,1.7298 C33.9089,1.7298 33.5209,1.3428 33.5209,0.8668 C33.5209,0.3908 33.9089,-0.0002 34.3849,-0.0002 L63.6849,-0.0002 C64.1629,-0.0002 64.5519,0.3908 64.5519,0.8668 C64.5519,1.3428 64.1629,1.7298 63.6849,1.7298 L34.3849,1.7298 Z M34.3849,14.8258 C33.9089,14.8258 33.5209,14.4338 33.5209,13.9588 C33.5209,13.4818 33.9089,13.0918 34.3849,13.0918 L63.6849,13.0918 C64.1629,13.0918 64.5519,13.4818 64.5519,13.9588 C64.5519,14.4338 64.1629,14.8258 63.6849,14.8258 L34.3849,14.8258 Z M34.3849,28.7358 C33.9089,28.7358 33.5209,28.3518 33.5209,27.8728 C33.5209,27.3928 33.9089,27.0098 34.3849,27.0098 L63.6849,27.0098 C64.1629,27.0098 64.5519,27.3928 64.5519,27.8728 C64.5519,28.3518 64.1629,28.7358 63.6849,28.7358 L34.3849,28.7358 Z M0.8669,-0.0002 L27.8729,-0.0002 C28.3519,-0.0002 28.7399,0.3908 28.7399,0.8668 L28.7399,27.8728 C28.7399,28.3518 28.3519,28.7358 27.8729,28.7358 L0.8669,28.7358 C0.3909,28.7358 -0.0001,28.3518 -0.0001,27.8728 L-0.0001,0.8668 C-0.0001,0.3908 0.3909,-0.0002 0.8669,-0.0002 Z M22.1389,6.1038 C22.6429,6.6068 22.9509,7.3038 22.9509,8.0748 C22.9509,8.8468 22.6389,9.5408 22.1359,10.0428 C21.6329,10.5498 20.9369,10.8628 20.1679,10.8628 C19.3999,10.8628 18.7029,10.5498 18.1969,10.0428 C17.6939,9.5408 17.3839,8.8468 17.3839,8.0748 C17.3839,7.3038 17.6939,6.6068 18.1969,6.1038 C18.6999,5.6008 19.3999,5.2928 20.1679,5.2928 C20.9369,5.2928 21.6359,5.6008 22.1389,6.1038 Z M20.1679,3.5618 C21.4119,3.5618 22.5399,4.0678 23.3559,4.8838 L23.3599,4.8878 C24.1749,5.7038 24.6809,6.8318 24.6809,8.0748 C24.6809,9.3218 24.1749,10.4518 23.3599,11.2668 C22.5429,12.0818 21.4149,12.5898 20.1679,12.5898 C18.9209,12.5898 17.7919,12.0818 16.9759,11.2668 C16.1609,10.4518 15.6549,9.3218 15.6549,8.0748 C15.6549,6.8318 16.1609,5.7038 16.9759,4.8878 L16.9799,4.8838 C17.7949,4.0678 18.9239,3.5618 20.1679,3.5618 Z M27.0099,18.2008 L27.0099,27.0098 L1.7339,27.0098 L1.7339,18.9958 L7.9469,14.8078 L16.7389,22.1868 C17.0119,22.4148 17.3819,22.4448 17.6769,22.2948 L27.0099,18.2008 Z M1.7339,16.9158 L7.5209,13.0108 C7.8579,12.7858 8.2959,12.8268 8.5849,13.0888 L17.4389,20.5178 L27.0099,16.3168 L27.0099,1.7298 L1.7339,1.7298 L1.7339,16.9158 Z M0.8669,42.6498 C0.3909,42.6498 -0.0001,42.2628 -0.0001,41.7868 C-0.0001,41.3068 0.3909,40.9198 0.8669,40.9198 L63.6849,40.9198 C64.1629,40.9198 64.5519,41.3068 64.5519,41.7868 C64.5519,42.2628 64.1629,42.6498 63.6849,42.6498 L0.8669,42.6498 Z" id="Fill-1" fill="#F9F9F9" mask="url(#mask-2)"></path>
        </g>
    </g>
</svg>