<?xml version="1.0" encoding="UTF-8"?>
<svg width="62px" height="58px" viewBox="0 0 62 58" version="1.1" xmlns="http://www.w3.org/2000/svg" xmlns:xlink="http://www.w3.org/1999/xlink">
    <!-- Generator: Sketch 49.3 (51167) - http://www.bohemiancoding.com/sketch -->
    <title>Page 1</title>
    <desc>Created with Sketch.</desc>
    <defs>
        <polygon id="path-1" points="0 0.6283 61.8793 0.6283 61.8793 58 0 58"></polygon>
        <polygon id="path-3" points="0 0.7768 61.8796 0.7768 61.8796 2.7278 0 2.7278"></polygon>
        <polygon id="path-5" points="0 58.3721 61.88 58.3721 61.88 1.0001 0 1.0001"></polygon>
    </defs>
    <g id="Page-1" stroke="none" stroke-width="1" fill="none" fill-rule="evenodd">
        <g transform="translate(0.000000, -1.000000)">
            <g id="Group-3" transform="translate(0.000000, 0.372100)">
                <mask id="mask-2" fill="white">
                    <use xlink:href="#path-1"></use>
                </mask>
                <g id="Clip-2"></g>
                <path d="M3.7903,2.5793 C2.7763,2.5793 1.9523,3.4043 1.9523,4.4183 L1.9523,54.2103 C1.9523,55.2243 2.7763,56.0483 3.7903,56.0483 L58.0893,56.0483 C59.1033,56.0483 59.9273,55.2243 59.9273,54.2103 L59.9273,4.4183 C59.9273,3.4043 59.1033,2.5793 58.0893,2.5793 L3.7903,2.5793 Z M58.0893,58.0003 L3.7903,58.0003 C1.7003,58.0003 -0.0007,56.3003 -0.0007,54.2103 L-0.0007,4.4183 C-0.0007,2.3283 1.7003,0.6283 3.7903,0.6283 L58.0893,0.6283 C60.1793,0.6283 61.8793,2.3283 61.8793,4.4183 L61.8793,54.2103 C61.8793,56.3003 60.1793,58.0003 58.0893,58.0003 Z" id="Fill-1" fill="#000202" mask="url(#mask-2)"></path>
            </g>
            <g id="Group-6" transform="translate(0.000000, 9.372100)">
                <mask id="mask-4" fill="white">
                    <use xlink:href="#path-3"></use>
                </mask>
                <g id="Clip-5"></g>
                <path d="M60.9036,2.7278 L0.9756,2.7278 C0.4366,2.7278 -0.0004,2.2908 -0.0004,1.7518 C-0.0004,1.2128 0.4366,0.7768 0.9756,0.7768 L60.9036,0.7768 C61.4426,0.7768 61.8796,1.2128 61.8796,1.7518 C61.8796,2.2908 61.4426,2.7278 60.9036,2.7278" id="Fill-4" fill="#000202" mask="url(#mask-4)"></path>
            </g>
            <path d="M7.3137,8.1643 C6.4567,8.1643 5.7597,7.4673 5.7597,6.6103 C5.7597,5.7533 6.4567,5.0563 7.3137,5.0563 C8.1707,5.0563 8.8677,5.7533 8.8677,6.6103 C8.8677,7.4673 8.1707,8.1643 7.3137,8.1643" id="Fill-7" fill="#000202"></path>
            <path d="M12.2869,8.1643 C11.4299,8.1643 10.7329,7.4673 10.7329,6.6103 C10.7329,5.7533 11.4299,5.0563 12.2869,5.0563 C13.1439,5.0563 13.8409,5.7533 13.8409,6.6103 C13.8409,7.4673 13.1439,8.1643 12.2869,8.1643" id="Fill-9" fill="#000202"></path>
            <path d="M17.2595,8.1643 C16.4025,8.1643 15.7055,7.4673 15.7055,6.6103 C15.7055,5.7533 16.4025,5.0563 17.2595,5.0563 C18.1165,5.0563 18.8135,5.7533 18.8135,6.6103 C18.8135,7.4673 18.1165,8.1643 17.2595,8.1643" id="Fill-11" fill="#000202"></path>
            <mask id="mask-6" fill="white">
                <use xlink:href="#path-5"></use>
            </mask>
            <g id="Clip-14"></g>
            <path d="M10.369,23.2651 L34.677,23.2651 L34.677,20.1871 L10.369,20.1871 L10.369,23.2651 Z M36.878,26.6791 L8.169,26.6791 C6.954,26.6791 5.969,25.9151 5.969,24.9721 L5.969,18.4791 C5.969,17.5361 6.954,16.7721 8.169,16.7721 L36.878,16.7721 C38.093,16.7721 39.078,17.5361 39.078,18.4791 L39.078,24.9721 C39.078,25.9151 38.093,26.6791 36.878,26.6791 Z" id="Fill-13" fill="#000202" mask="url(#mask-6)"></path>
        </g>
    </g>
</svg>