<?xml version="1.0" encoding="UTF-8"?>
<svg width="55px" height="58px" viewBox="0 0 55 58" version="1.1" xmlns="http://www.w3.org/2000/svg" xmlns:xlink="http://www.w3.org/1999/xlink">
    <!-- Generator: Sketch 49.3 (51167) - http://www.bohemiancoding.com/sketch -->
    <title>Page 1</title>
    <desc>Created with Sketch.</desc>
    <defs>
        <polygon id="path-1" points="0.0006 -0.0001 54.859 -0.0001 54.859 57.0209 0.0006 57.0209"></polygon>
    </defs>
    <g id="Page-1" stroke="none" stroke-width="1" fill="none" fill-rule="evenodd">
        <g>
            <mask id="mask-2" fill="white">
                <use xlink:href="#path-1"></use>
            </mask>
            <g id="Clip-2"></g>
            <path d="M47.8576,34.6022 L42.0256,30.9232 C41.8436,30.8112 41.6466,30.7482 41.4516,30.7382 C41.2606,30.7332 41.0596,30.7812 40.8686,30.8802 L28.9906,37.1082 C28.5116,37.3612 27.9946,37.4602 27.4936,37.4152 L27.4636,37.4132 C26.9466,37.3612 26.4486,37.1572 26.0236,36.8112 L11.8436,25.2042 C11.6546,25.0522 11.4426,24.9612 11.2296,24.9402 C11.0146,24.9182 10.7896,24.9612 10.5736,25.0742 L7.0136,26.9262 L7.0136,44.4292 L47.8576,44.4292 L47.8576,34.6022 Z M7.0136,25.1852 L9.8596,23.7032 C10.3456,23.4482 10.8716,23.3542 11.3886,23.4092 C11.9016,23.4592 12.3966,23.6642 12.8216,24.0092 L27.0016,35.6142 C27.1896,35.7682 27.4056,35.8572 27.6176,35.8772 L27.6326,35.8812 C27.8456,35.8992 28.0706,35.8542 28.2766,35.7452 L40.1516,29.5142 C40.5886,29.2872 41.0536,29.1832 41.5126,29.2022 C41.9776,29.2192 42.4326,29.3592 42.8456,29.6232 L47.8576,32.7832 L47.8576,6.9352 L7.0136,6.9352 L7.0136,25.1852 Z M39.6526,13.3842 C38.5506,12.2752 37.0196,11.5912 35.3306,11.5912 C33.6446,11.5912 32.1136,12.2722 31.0086,13.3812 C29.8996,14.4872 29.2156,16.0152 29.2156,17.7042 L29.2186,17.7042 L29.2156,17.7042 C29.2156,19.3902 29.8996,20.9212 31.0086,22.0292 C32.1106,23.1312 33.6386,23.8162 35.3246,23.8192 L35.3246,23.8162 L35.3246,23.8192 C37.0136,23.8192 38.5446,23.1312 39.6526,22.0292 C40.7586,20.9232 41.4426,19.3962 41.4426,17.7072 C41.4426,16.0212 40.7586,14.4912 39.6526,13.3842 Z M35.3306,10.0512 C33.2196,10.0512 31.3026,10.9062 29.9206,12.2892 C28.5356,13.6722 27.6756,15.5862 27.6756,17.7042 L27.6726,17.7042 L27.6756,17.7042 C27.6756,19.8152 28.5316,21.7292 29.9146,23.1142 C31.2966,24.4992 33.2106,25.3552 35.3246,25.3592 C37.4396,25.3592 39.3556,24.5022 40.7376,23.1202 C42.1236,21.7352 42.9826,19.8212 42.9826,17.7072 C42.9856,15.5932 42.1286,13.6792 40.7466,12.2962 C39.3616,10.9112 37.4446,10.0512 35.3306,10.0512 Z M4.6566,-0.0008 C3.3806,-0.0008 2.2206,0.5232 1.3816,1.3582 C0.5436,2.1972 0.0236,3.3572 0.0236,4.6322 L0.0006,52.3672 C0.0006,53.6422 0.5186,54.8022 1.3576,55.6412 C2.1956,56.4802 3.3536,56.9992 4.6296,56.9992 L50.2036,57.0212 C51.4786,57.0232 52.6386,56.5042 53.4776,55.6652 C54.3156,54.8272 54.8366,53.6662 54.8366,52.3912 L54.8596,4.6572 C54.8596,3.3782 54.3406,2.2212 53.5016,1.3822 C52.6636,0.5442 51.5036,0.0212 50.2266,0.0212 L4.6566,-0.0008 Z M50.2266,1.5612 L4.6566,1.5402 C3.8056,1.5402 3.0316,1.8872 2.4656,2.4492 C1.9076,3.0112 1.5616,3.7852 1.5616,4.6322 L1.5396,52.3672 C1.5396,53.2172 1.8856,53.9922 2.4476,54.5542 C3.0066,55.1122 3.7816,55.4612 4.6296,55.4612 L50.2036,55.4802 C51.0526,55.4802 51.8276,55.1332 52.3906,54.5722 C52.9486,54.0122 53.2976,53.2412 53.2976,52.3912 L53.3196,4.6572 C53.3196,3.8062 52.9736,3.0322 52.4086,2.4702 C51.8496,1.9112 51.0746,1.5612 50.2266,1.5612 Z M6.2426,5.3892 L48.6286,5.3892 C49.0546,5.3892 49.4006,5.7352 49.4006,6.1612 L49.4006,45.2042 C49.4006,45.6292 49.0546,45.9752 48.6286,45.9752 L6.2426,45.9752 C5.8166,45.9752 5.4676,45.6292 5.4676,45.2042 L5.4676,6.1612 C5.4676,5.7352 5.8166,5.3892 6.2426,5.3892 Z" id="Fill-1" fill="#FFFFFF" mask="url(#mask-2)"></path>
        </g>
    </g>
</svg>