<?xml version="1.0" encoding="UTF-8"?>
<svg width="62px" height="58px" viewBox="0 0 62 58" version="1.1" xmlns="http://www.w3.org/2000/svg" xmlns:xlink="http://www.w3.org/1999/xlink">
    <!-- Generator: Sketch 49.3 (51167) - http://www.bohemiancoding.com/sketch -->
    <title>Page 1</title>
    <desc>Created with Sketch.</desc>
    <defs>
        <polygon id="path-1" points="0 0.628 61.8794 0.628 61.8794 57.9999 0 57.9999"></polygon>
        <polygon id="path-3" points="0 0.7763 61.8797 0.7763 61.8797 2.7283 0 2.7283"></polygon>
    </defs>
    <g id="Page-1" stroke="none" stroke-width="1" fill="none" fill-rule="evenodd">
        <g transform="translate(0.000000, -1.000000)">
            <g id="Group-3" transform="translate(0.000000, 0.372100)">
                <mask id="mask-2" fill="white">
                    <use xlink:href="#path-1"></use>
                </mask>
                <g id="Clip-2"></g>
                <path d="M3.7904,2.5799 C2.7764,2.5799 1.9524,3.4039 1.9524,4.4179 L1.9524,54.2099 C1.9524,55.2239 2.7764,56.0479 3.7904,56.0479 L58.0894,56.0479 C59.1034,56.0479 59.9274,55.2239 59.9274,54.2099 L59.9274,4.4179 C59.9274,3.4039 59.1034,2.5799 58.0894,2.5799 L3.7904,2.5799 Z M58.0894,57.9999 L3.7904,57.9999 C1.7004,57.9999 -0.0006,56.2999 -0.0006,54.2099 L-0.0006,4.4179 C-0.0006,2.3279 1.7004,0.6279 3.7904,0.6279 L58.0894,0.6279 C60.1794,0.6279 61.8794,2.3279 61.8794,4.4179 L61.8794,54.2099 C61.8794,56.2999 60.1794,57.9999 58.0894,57.9999 Z" id="Fill-1" fill="#000202" mask="url(#mask-2)"></path>
            </g>
            <g id="Group-6" transform="translate(0.000000, 9.372100)">
                <mask id="mask-4" fill="white">
                    <use xlink:href="#path-3"></use>
                </mask>
                <g id="Clip-5"></g>
                <path d="M60.9037,2.7283 L0.9757,2.7283 C0.4367,2.7283 -0.0003,2.2913 -0.0003,1.7513 C-0.0003,1.2123 0.4367,0.7763 0.9757,0.7763 L60.9037,0.7763 C61.4427,0.7763 61.8797,1.2123 61.8797,1.7513 C61.8797,2.2913 61.4427,2.7283 60.9037,2.7283" id="Fill-4" fill="#000202" mask="url(#mask-4)"></path>
            </g>
            <path d="M7.3138,8.1649 C6.4568,8.1649 5.7598,7.4679 5.7598,6.6099 C5.7598,5.7539 6.4568,5.0569 7.3138,5.0569 C8.1708,5.0569 8.8678,5.7539 8.8678,6.6099 C8.8678,7.4679 8.1708,8.1649 7.3138,8.1649" id="Fill-7" fill="#000202"></path>
            <path d="M12.2865,8.1649 C11.4295,8.1649 10.7325,7.4679 10.7325,6.6099 C10.7325,5.7539 11.4295,5.0569 12.2865,5.0569 C13.1435,5.0569 13.8405,5.7539 13.8405,6.6099 C13.8405,7.4679 13.1435,8.1649 12.2865,8.1649" id="Fill-9" fill="#000202"></path>
            <path d="M17.2596,8.1649 C16.4026,8.1649 15.7056,7.4679 15.7056,6.6099 C15.7056,5.7539 16.4026,5.0569 17.2596,5.0569 C18.1166,5.0569 18.8136,5.7539 18.8136,6.6099 C18.8136,7.4679 18.1166,8.1649 17.2596,8.1649" id="Fill-11" fill="#000202"></path>
            <path d="M43.5272,48.1639 L16.7042,48.1639 C15.6552,48.1639 14.8062,47.3139 14.8062,46.2659 C14.8062,45.2179 15.6552,44.3669 16.7042,44.3669 L43.5272,44.3669 C44.5752,44.3669 45.4252,45.2179 45.4252,46.2659 C45.4252,47.3139 44.5752,48.1639 43.5272,48.1639" id="Fill-13" fill="#000202"></path>
            <path d="M43.5272,39.8299 L16.7042,39.8299 C15.6552,39.8299 14.8062,38.9799 14.8062,37.9329 C14.8062,36.8839 15.6552,36.0339 16.7042,36.0339 L43.5272,36.0339 C44.5752,36.0339 45.4252,36.8839 45.4252,37.9329 C45.4252,38.9799 44.5752,39.8299 43.5272,39.8299" id="Fill-15" fill="#000202"></path>
            <path d="M43.5272,31.4969 L16.7042,31.4969 C15.6552,31.4969 14.8062,30.6469 14.8062,29.5989 C14.8062,28.5509 15.6552,27.7009 16.7042,27.7009 L43.5272,27.7009 C44.5752,27.7009 45.4252,28.5509 45.4252,29.5989 C45.4252,30.6469 44.5752,31.4969 43.5272,31.4969" id="Fill-17" fill="#000202"></path>
            <path d="M43.5272,23.1639 L16.7042,23.1639 C15.6552,23.1639 14.8062,22.3139 14.8062,21.2659 C14.8062,20.2179 15.6552,19.3669 16.7042,19.3669 L43.5272,19.3669 C44.5752,19.3669 45.4252,20.2179 45.4252,21.2659 C45.4252,22.3139 44.5752,23.1639 43.5272,23.1639" id="Fill-19" fill="#000202"></path>
            <polygon id="Fill-21" fill="#000000" points="10.4779 19.8611 9.7039 19.8611 10.0749 19.2291 11.1539 19.2291 11.1539 23.7071 10.4779 23.7071"></polygon>
            <path d="M10.3558,31.2723 L12.0228,31.2723 L12.0228,31.9073 L9.0158,31.9073 L10.5708,30.0253 C10.7228,29.8373 10.8518,29.6743 10.9548,29.5383 C11.0578,29.4003 11.1368,29.2853 11.1908,29.1923 C11.3008,29.0103 11.3558,28.8473 11.3558,28.7023 C11.3558,28.4933 11.2828,28.3183 11.1358,28.1773 C10.9888,28.0363 10.8078,27.9653 10.5908,27.9653 C10.1388,27.9653 9.8788,28.2333 9.8138,28.7693 L9.1408,28.7693 C9.2488,27.8253 9.7258,27.3533 10.5708,27.3533 C10.9788,27.3533 11.3208,27.4833 11.5968,27.7423 C11.8758,28.0013 12.0148,28.3223 12.0148,28.7053 C12.0148,28.9493 11.9498,29.1873 11.8208,29.4213 C11.7548,29.5433 11.6588,29.6883 11.5318,29.8553 C11.4048,30.0223 11.2458,30.2203 11.0518,30.4483 L10.3558,31.2723 Z" id="Fill-23" fill="#000000"></path>
            <path d="M10.4052,38.0281 L10.4052,37.4511 C10.6912,37.4511 10.8842,37.4191 10.9822,37.3551 C11.1582,37.2431 11.2462,37.0631 11.2462,36.8151 C11.2462,36.6241 11.1822,36.4681 11.0552,36.3481 C10.9292,36.2261 10.7662,36.1661 10.5652,36.1661 C10.3772,36.1661 10.2322,36.2111 10.1302,36.3021 C10.0312,36.3951 9.9572,36.5511 9.9092,36.7721 L9.2362,36.7721 C9.3062,36.3501 9.4492,36.0421 9.6652,35.8451 C9.8822,35.6491 10.1852,35.5501 10.5732,35.5501 C10.9662,35.5501 11.2862,35.6671 11.5332,35.8991 C11.7802,36.1291 11.9052,36.4251 11.9052,36.7891 C11.9052,37.1991 11.7422,37.5181 11.4172,37.7471 C11.7882,37.9651 11.9742,38.3201 11.9742,38.8101 C11.9742,39.2131 11.8392,39.5421 11.5682,39.7971 C11.2972,40.0521 10.9502,40.1791 10.5272,40.1791 C9.9882,40.1791 9.5872,39.9811 9.3262,39.5851 C9.2182,39.4191 9.1492,39.1891 9.1202,38.8951 L9.7732,38.8951 C9.8072,39.1111 9.8922,39.2771 10.0272,39.3921 C10.1612,39.5071 10.3362,39.5651 10.5532,39.5651 C10.7712,39.5651 10.9522,39.4921 11.0952,39.3471 C11.2382,39.1981 11.3102,39.0091 11.3102,38.7821 C11.3102,38.4801 11.2022,38.2651 10.9882,38.1371 C10.8622,38.0641 10.6682,38.0281 10.4052,38.0281" id="Fill-25" fill="#000000"></path>
            <path d="M11.1215,47.0565 L11.1215,45.5575 L10.0895,47.0565 L11.1215,47.0565 Z M11.7975,47.0565 L12.2725,47.0565 L12.2725,47.6715 L11.7975,47.6715 L11.7975,48.3065 L11.1215,48.3065 L11.1215,47.6715 L8.9235,47.6715 L11.7975,43.4945 L11.7975,47.0565 Z" id="Fill-27" fill="#000000"></path>
        </g>
    </g>
</svg>