<?xml version="1.0" encoding="UTF-8"?>
<svg width="62px" height="58px" viewBox="0 0 62 58" version="1.1" xmlns="http://www.w3.org/2000/svg" xmlns:xlink="http://www.w3.org/1999/xlink">
    <!-- Generator: Sketch 49.3 (51167) - http://www.bohemiancoding.com/sketch -->
    <title>Page 1</title>
    <desc>Created with Sketch.</desc>
    <defs>
        <polygon id="path-1" points="0 0.6283 61.8793 0.6283 61.8793 58 0 58"></polygon>
        <polygon id="path-3" points="0 0.7768 61.8796 0.7768 61.8796 2.7278 0 2.7278"></polygon>
    </defs>
    <g id="Page-1" stroke="none" stroke-width="1" fill="none" fill-rule="evenodd">
        <g transform="translate(0.000000, -1.000000)">
            <g id="Group-3" transform="translate(0.000000, 0.372100)">
                <mask id="mask-2" fill="white">
                    <use xlink:href="#path-1"></use>
                </mask>
                <g id="Clip-2"></g>
                <path d="M3.7903,2.5793 C2.7763,2.5793 1.9523,3.4043 1.9523,4.4183 L1.9523,54.2103 C1.9523,55.2243 2.7763,56.0483 3.7903,56.0483 L58.0893,56.0483 C59.1033,56.0483 59.9273,55.2243 59.9273,54.2103 L59.9273,4.4183 C59.9273,3.4043 59.1033,2.5793 58.0893,2.5793 L3.7903,2.5793 Z M58.0893,58.0003 L3.7903,58.0003 C1.7003,58.0003 -0.0007,56.3003 -0.0007,54.2103 L-0.0007,4.4183 C-0.0007,2.3283 1.7003,0.6283 3.7903,0.6283 L58.0893,0.6283 C60.1793,0.6283 61.8793,2.3283 61.8793,4.4183 L61.8793,54.2103 C61.8793,56.3003 60.1793,58.0003 58.0893,58.0003 Z" id="Fill-1" fill="#F9F9F9" mask="url(#mask-2)"></path>
            </g>
            <g id="Group-6" transform="translate(0.000000, 9.372100)">
                <mask id="mask-4" fill="white">
                    <use xlink:href="#path-3"></use>
                </mask>
                <g id="Clip-5"></g>
                <path d="M60.9036,2.7278 L0.9756,2.7278 C0.4366,2.7278 -0.0004,2.2908 -0.0004,1.7518 C-0.0004,1.2128 0.4366,0.7768 0.9756,0.7768 L60.9036,0.7768 C61.4426,0.7768 61.8796,1.2128 61.8796,1.7518 C61.8796,2.2908 61.4426,2.7278 60.9036,2.7278" id="Fill-4" fill="#F9F9F9" mask="url(#mask-4)"></path>
            </g>
            <path d="M7.3138,8.1643 C6.4568,8.1643 5.7598,7.4673 5.7598,6.6103 C5.7598,5.7533 6.4568,5.0563 7.3138,5.0563 C8.1708,5.0563 8.8678,5.7533 8.8678,6.6103 C8.8678,7.4673 8.1708,8.1643 7.3138,8.1643" id="Fill-7" fill="#F9F9F9"></path>
            <path d="M12.2869,8.1643 C11.4299,8.1643 10.7329,7.4673 10.7329,6.6103 C10.7329,5.7533 11.4299,5.0563 12.2869,5.0563 C13.1439,5.0563 13.8409,5.7533 13.8409,6.6103 C13.8409,7.4673 13.1439,8.1643 12.2869,8.1643" id="Fill-9" fill="#F9F9F9"></path>
            <path d="M17.2596,8.1643 C16.4026,8.1643 15.7056,7.4673 15.7056,6.6103 C15.7056,5.7533 16.4026,5.0563 17.2596,5.0563 C18.1166,5.0563 18.8136,5.7533 18.8136,6.6103 C18.8136,7.4673 18.1166,8.1643 17.2596,8.1643" id="Fill-11" fill="#F9F9F9"></path>
            <path d="M52.6805,21.7258 L6.7035,21.7258 C5.6555,21.7258 4.8055,20.8758 4.8055,19.8278 C4.8055,18.7798 5.6555,17.9288 6.7035,17.9288 L52.6805,17.9288 C53.7285,17.9288 54.5785,18.7798 54.5785,19.8278 C54.5785,20.8758 53.7285,21.7258 52.6805,21.7258" id="Fill-13" fill="#F9F9F9"></path>
            <path d="M52.1038,30.5383 L6.7038,30.5383 C5.6558,30.5383 4.8058,29.6883 4.8058,28.6403 C4.8058,27.5923 5.6558,26.7423 6.7038,26.7423 L52.1038,26.7423 C53.1518,26.7423 54.0018,27.5923 54.0018,28.6403 C54.0018,29.6883 53.1518,30.5383 52.1038,30.5383" id="Fill-15" fill="#F9F9F9"></path>
            <path d="M43.5271,39.3508 L6.7041,39.3508 C5.6551,39.3508 4.8061,38.5008 4.8061,37.4528 C4.8061,36.4048 5.6551,35.5548 6.7041,35.5548 L43.5271,35.5548 C44.5751,35.5548 45.4251,36.4048 45.4251,37.4528 C45.4251,38.5008 44.5751,39.3508 43.5271,39.3508" id="Fill-17" fill="#F9F9F9"></path>
            <path d="M33.5271,48.1633 L6.7041,48.1633 C5.6551,48.1633 4.8061,47.3133 4.8061,46.2663 C4.8061,45.2173 5.6551,44.3673 6.7041,44.3673 L33.5271,44.3673 C34.5751,44.3673 35.4251,45.2173 35.4251,46.2663 C35.4251,47.3133 34.5751,48.1633 33.5271,48.1633" id="Fill-19" fill="#F9F9F9"></path>
        </g>
    </g>
</svg>