<?xml version="1.0" encoding="UTF-8"?>
<svg width="62px" height="58px" viewBox="0 0 62 58" version="1.1" xmlns="http://www.w3.org/2000/svg" xmlns:xlink="http://www.w3.org/1999/xlink">
    <!-- Generator: Sketch 49.3 (51167) - http://www.bohemiancoding.com/sketch -->
    <title>Page 1</title>
    <desc>Created with Sketch.</desc>
    <defs>
        <polygon id="path-1" points="0.0003 0.6281 61.8793 0.6281 61.8793 58 0.0003 58"></polygon>
    </defs>
    <g id="Page-1" stroke="none" stroke-width="1" fill="none" fill-rule="evenodd">
        <g transform="translate(0.000000, -1.000000)">
            <g id="Group-3" transform="translate(0.000000, 0.372100)">
                <mask id="mask-2" fill="white">
                    <use xlink:href="#path-1"></use>
                </mask>
                <g id="Clip-2"></g>
                <path d="M3.7903,2.5801 C2.7763,2.5801 1.9523,3.4041 1.9523,4.4181 L1.9523,54.2101 C1.9523,55.2241 2.7763,56.0481 3.7903,56.0481 L58.0893,56.0481 C59.1033,56.0481 59.9273,55.2241 59.9273,54.2101 L59.9273,4.4181 C59.9273,3.4041 59.1033,2.5801 58.0893,2.5801 L3.7903,2.5801 Z M58.0893,58.0001 L3.7903,58.0001 C1.7003,58.0001 0.0003,56.3001 0.0003,54.2101 L0.0003,4.4181 C0.0003,2.3281 1.7003,0.6281 3.7903,0.6281 L58.0893,0.6281 C60.1793,0.6281 61.8793,2.3281 61.8793,4.4181 L61.8793,54.2101 C61.8793,56.3001 60.1793,58.0001 58.0893,58.0001 Z" id="Fill-1" fill="#000202" mask="url(#mask-2)"></path>
            </g>
            <path d="M60.9035,12.0997 L0.9755,12.0997 C0.4365,12.0997 0.0005,11.6627 0.0005,11.1237 C0.0005,10.5847 0.4365,10.1487 0.9755,10.1487 L60.9035,10.1487 C61.4425,10.1487 61.8795,10.5847 61.8795,11.1237 C61.8795,11.6627 61.4425,12.0997 60.9035,12.0997" id="Fill-4" fill="#000202"></path>
            <path d="M7.3142,8.1641 C6.4572,8.1641 5.7602,7.4681 5.7602,6.6101 C5.7602,5.7531 6.4572,5.0571 7.3142,5.0571 C8.1712,5.0571 8.8682,5.7531 8.8682,6.6101 C8.8682,7.4681 8.1712,8.1641 7.3142,8.1641" id="Fill-6" fill="#000202"></path>
            <path d="M12.2868,8.1641 C11.4298,8.1641 10.7328,7.4681 10.7328,6.6101 C10.7328,5.7531 11.4298,5.0571 12.2868,5.0571 C13.1438,5.0571 13.8408,5.7531 13.8408,6.6101 C13.8408,7.4681 13.1438,8.1641 12.2868,8.1641" id="Fill-8" fill="#000202"></path>
            <path d="M17.2595,8.1641 C16.4025,8.1641 15.7055,7.4681 15.7055,6.6101 C15.7055,5.7531 16.4025,5.0571 17.2595,5.0571 C18.1165,5.0571 18.8135,5.7531 18.8135,6.6101 C18.8135,7.4681 18.1165,8.1641 17.2595,8.1641" id="Fill-10" fill="#000202"></path>
            <path d="M43.5271,48.1641 L16.7041,48.1641 C15.6551,48.1641 14.8061,47.3131 14.8061,46.2661 C14.8061,45.2171 15.6551,44.3671 16.7041,44.3671 L43.5271,44.3671 C44.5751,44.3671 45.4251,45.2171 45.4251,46.2661 C45.4251,47.3131 44.5751,48.1641 43.5271,48.1641" id="Fill-12" fill="#000202"></path>
            <path d="M43.5271,39.8301 L16.7041,39.8301 C15.6551,39.8301 14.8061,38.9801 14.8061,37.9331 C14.8061,36.8841 15.6551,36.0341 16.7041,36.0341 L43.5271,36.0341 C44.5751,36.0341 45.4251,36.8841 45.4251,37.9331 C45.4251,38.9801 44.5751,39.8301 43.5271,39.8301" id="Fill-14" fill="#000202"></path>
            <path d="M43.5271,31.4971 L16.7041,31.4971 C15.6551,31.4971 14.8061,30.6471 14.8061,29.5991 C14.8061,28.5511 15.6551,27.7001 16.7041,27.7001 L43.5271,27.7001 C44.5751,27.7001 45.4251,28.5511 45.4251,29.5991 C45.4251,30.6471 44.5751,31.4971 43.5271,31.4971" id="Fill-16" fill="#000202"></path>
            <path d="M43.5271,23.1641 L16.7041,23.1641 C15.6551,23.1641 14.8061,22.3131 14.8061,21.2661 C14.8061,20.2171 15.6551,19.3671 16.7041,19.3671 L43.5271,19.3671 C44.5751,19.3671 45.4251,20.2171 45.4251,21.2661 C45.4251,22.3131 44.5751,23.1641 43.5271,23.1641" id="Fill-18" fill="#000202"></path>
            <path d="M11.2385,20.9024 C11.2385,21.7504 10.5515,22.4364 9.7035,22.4364 C8.8565,22.4364 8.1695,21.7504 8.1695,20.9024 C8.1695,20.0544 8.8565,19.3674 9.7035,19.3674 C10.5515,19.3674 11.2385,20.0544 11.2385,20.9024" id="Fill-20" fill="#000202"></path>
            <path d="M11.2385,29.9024 C11.2385,30.7504 10.5515,31.4364 9.7035,31.4364 C8.8565,31.4364 8.1695,30.7504 8.1695,29.9024 C8.1695,29.0544 8.8565,28.3674 9.7035,28.3674 C10.5515,28.3674 11.2385,29.0544 11.2385,29.9024" id="Fill-22" fill="#000202"></path>
            <path d="M11.2385,37.9024 C11.2385,38.7504 10.5515,39.4364 9.7035,39.4364 C8.8565,39.4364 8.1695,38.7504 8.1695,37.9024 C8.1695,37.0544 8.8565,36.3674 9.7035,36.3674 C10.5515,36.3674 11.2385,37.0544 11.2385,37.9024" id="Fill-24" fill="#000202"></path>
            <path d="M11.2385,45.9024 C11.2385,46.7504 10.5515,47.4364 9.7035,47.4364 C8.8565,47.4364 8.1695,46.7504 8.1695,45.9024 C8.1695,45.0544 8.8565,44.3674 9.7035,44.3674 C10.5515,44.3674 11.2385,45.0544 11.2385,45.9024" id="Fill-26" fill="#000202"></path>
        </g>
    </g>
</svg>